<svg version="1.1" id="Layer_1" xmlns="http://www.w3.org/2000/svg" xmlns:xlink="http://www.w3.org/1999/xlink" x="0px" y="0px"
	 width="100%" viewBox="0 0 624 624" enable-background="new 0 0 624 624" xml:space="preserve">
<path fill="#FFFFFF" opacity="1.000000" stroke="none" 
	d="
M394.113220,249.865723 
	C413.047974,269.340576 421.695251,292.381256 419.186890,319.030457 
	C417.548370,336.438538 410.618958,351.875763 399.021301,365.293182 
	C384.886902,381.645386 367.083618,391.433350 345.988892,394.040222 
	C322.831604,396.901947 301.512207,391.087311 282.998291,376.247253 
	C265.756073,362.426544 254.941055,344.588745 252.126312,322.846588 
	C249.099716,299.468140 253.754486,277.524933 269.003632,258.595520 
	C282.714600,241.575470 300.034973,230.606171 321.753845,227.446457 
	C342.070831,224.490692 361.495453,227.238602 379.175079,238.520218 
	C384.364441,241.831604 389.266205,245.514526 394.113220,249.865723 
z"/>
<path fill="#FFFFFF" opacity="1.000000" stroke="none" 
	d="
M179.415894,268.411194 
	C197.648804,249.102966 233.180573,241.205597 245.088257,245.992203 
	C210.494125,310.413757 222.649445,363.991425 281.881897,407.519928 
	C278.408112,410.510498 273.815430,412.347717 269.213135,413.958832 
	C238.691025,424.643738 210.374756,420.590790 184.644363,400.739166 
	C165.822495,386.217590 154.552155,366.806610 151.949707,343.452026 
	C148.876938,315.877014 156.028885,290.991791 176.692596,271.137451 
	C177.533401,270.329559 178.343536,269.489746 179.415894,268.411194 
z"/>
<path fill="#FFFFFF" opacity="1.000000" stroke="none" 
	d="
M460.011139,440.857178 
	C445.959045,459.448944 427.894684,471.412598 405.187744,474.776855 
	C381.249573,478.323578 359.122437,473.067017 339.683533,457.848053 
	C328.114807,448.790741 319.953644,437.340912 314.031769,424.092102 
	C313.222412,422.281403 312.135132,420.544312 312.657257,417.695557 
	C343.018402,423.001434 371.560394,418.333679 397.375214,400.582001 
	C423.267670,382.777008 437.966187,357.817535 443.788086,327.184082 
	C470.716553,342.631226 491.135101,397.239410 460.011139,440.857178 
z"/>
<path fill="#FFFFFF" opacity="1.000000" stroke="none" 
	d="
M339.929199,152.599335 
	C359.248077,150.251343 377.786133,150.983627 395.673004,158.341324 
	C428.178864,171.712540 449.589722,195.260529 459.411102,228.897446 
	C466.552338,253.355240 464.571381,277.406799 453.894287,300.708435 
	C447.443970,298.506592 443.672638,295.068878 442.311646,287.917786 
	C437.925690,264.872742 426.647522,245.321045 409.316895,229.543777 
	C393.090637,214.771896 373.987854,205.568817 352.183746,202.406174 
	C330.119141,199.205704 308.820465,201.936646 288.498260,211.333710 
	C283.358704,213.710266 278.434753,216.545563 274.017242,220.059464 
	C268.812103,224.199936 263.751923,223.768768 258.427338,220.666794 
	C267.199402,190.878464 298.612671,159.307236 339.929199,152.599335 
z"/>
</svg>